<svg xmlns="http://www.w3.org/2000/svg" width="25.111" height="18.317" viewBox="0 0 25.111 18.317">
  <path id="icons8-leadership" d="M13.547,6.986a.523.523,0,0,0-.515.53V9.086a.523.523,0,1,0,1.046,0V7.517a.523.523,0,0,0-.531-.53ZM9.111,8.828a.523.523,0,0,0-.364.9l1.11,1.11a.523.523,0,1,0,.74-.74l-1.11-1.11A.523.523,0,0,0,9.111,8.828Zm8.873,0a.523.523,0,0,0-.36.158l-1.11,1.11a.523.523,0,1,0,.74.74l1.11-1.11a.523.523,0,0,0-.38-.9Zm-4.428,1.828a3.139,3.139,0,1,0,3.139,3.139A3.147,3.147,0,0,0,13.556,10.655Zm0,1.046a2.093,2.093,0,1,1-2.093,2.093A2.085,2.085,0,0,1,13.556,11.7ZM7.278,13.271a.523.523,0,1,0,0,1.046H8.847a.523.523,0,1,0,0-1.046Zm10.986,0a.523.523,0,1,0,0,1.046h1.569a.523.523,0,1,0,0-1.046ZM5.185,15.364A2.616,2.616,0,1,0,7.8,17.98,2.624,2.624,0,0,0,5.185,15.364Zm16.741,0a2.616,2.616,0,1,0,2.616,2.616A2.624,2.624,0,0,0,21.926,15.364ZM5.185,16.41A1.569,1.569,0,1,1,3.616,17.98,1.562,1.562,0,0,1,5.185,16.41Zm16.741,0a1.569,1.569,0,1,1-1.569,1.569A1.562,1.562,0,0,1,21.926,16.41ZM11.463,17.98a3.151,3.151,0,0,0-3.139,3.139V22.15a2.53,2.53,0,0,0-1.511-.509H3.557A2.568,2.568,0,0,0,1,24.2v1.1H2.046V24.2a1.512,1.512,0,0,1,1.511-1.511H6.813A1.512,1.512,0,0,1,8.324,24.2v1.1H9.37V21.118a2.1,2.1,0,0,1,2.093-2.093h4.185a2.1,2.1,0,0,1,2.093,2.093V25.3h1.046V24.2A1.512,1.512,0,0,1,20.3,22.688h3.255A1.512,1.512,0,0,1,25.065,24.2v1.1h1.046V24.2a2.568,2.568,0,0,0-2.557-2.557H20.3a2.53,2.53,0,0,0-1.511.509V21.118a3.151,3.151,0,0,0-3.139-3.139Z" transform="translate(-1 -6.986)" fill="#1dcbff"/>
</svg>
