<svg xmlns="http://www.w3.org/2000/svg" width="35.646" height="44.61" viewBox="0 0 35.646 44.61">
  <g id="Group_7759" data-name="Group 7759" transform="translate(-1225.786 -103.018)">
    <g id="Group_9" data-name="Group 9" transform="translate(946.163 -137.97)">
      <g id="Group_5" data-name="Group 5">
        <g id="Group_3" data-name="Group 3">
          <path id="Path_3" data-name="Path 3" d="M312.374,255.216l-24.127-13.837a2.086,2.086,0,0,0-1.938-.249h0a1.309,1.309,0,0,0-.208.121l-5.969,3.484a.179.179,0,0,0,.019.319l2.969,1.3.8,1.882v13.211a6.418,6.418,0,0,0,2.9,5.032l5.683,3.281a2.514,2.514,0,0,1,1.132,1.961v3.923c0,.888.922,1.868,1.466,1.56l4.247-2.407a2.3,2.3,0,0,1,2.28.231l-2.171-.977,8.34,11.484,6.767-3.927.052-.043a2.051,2.051,0,0,0,.653-1.746V260.248A6.415,6.415,0,0,0,312.374,255.216Z" fill="#cb0070"/>
        </g>
        <g id="Group_4" data-name="Group 4">
          <path id="Path_7" data-name="Path 7" d="M282.518,245l23.7,13.918a6.415,6.415,0,0,1,2.895,5.032v19.569c0,1.856-1.3,2.612-2.895,1.689l-10.928-6.472a2.3,2.3,0,0,0-2.279-.231l-4.247,2.406c-.545.309-1.467-.671-1.467-1.559v-3.916a2.51,2.51,0,0,0-1.132-1.968l-3.647-2.178a6.415,6.415,0,0,1-2.895-5.032V246.686C279.623,244.83,280.919,244.074,282.518,245Z" fill="#ed1d90"/>
        </g>
      </g>
    </g>
    <path id="icons8-information" d="M1.809.332a.588.588,0,0,0-.418.055.976.976,0,0,0-.348.336A1.965,1.965,0,0,0,.8,1.286a3.117,3.117,0,0,0-.1.734,3.583,3.583,0,0,0,.064.774,2.967,2.967,0,0,0,.211.67,1.8,1.8,0,0,0,.327.5.862.862,0,0,0,.41.252.587.587,0,0,0,.418-.052.97.97,0,0,0,.349-.334,1.957,1.957,0,0,0,.245-.563,3.113,3.113,0,0,0,.1-.737,3.583,3.583,0,0,0-.064-.777,2.962,2.962,0,0,0-.213-.672,1.787,1.787,0,0,0-.328-.5A.856.856,0,0,0,1.809.332ZM.6,5.891a.194.194,0,0,0-.139.017.32.32,0,0,0-.116.111A.647.647,0,0,0,.264,6.2a1.032,1.032,0,0,0-.034.244,1.194,1.194,0,0,0,.021.257.994.994,0,0,0,.07.223A.6.6,0,0,0,.43,7.1a.288.288,0,0,0,.136.085l.353.088L.737,14.351l-.352-.092a.193.193,0,0,0-.138.015.311.311,0,0,0-.115.108.634.634,0,0,0-.081.184,1.022,1.022,0,0,0-.034.243,1.2,1.2,0,0,0,.021.257,1,1,0,0,0,.07.224.615.615,0,0,0,.108.167.294.294,0,0,0,.136.087l2.121.56a.2.2,0,0,0,.139-.014.312.312,0,0,0,.116-.109A.633.633,0,0,0,2.81,15.8a1.021,1.021,0,0,0,.034-.244,1.2,1.2,0,0,0-.021-.259,1.006,1.006,0,0,0-.071-.225.617.617,0,0,0-.109-.168.3.3,0,0,0-.137-.087l-.355-.093.2-7.749a1.194,1.194,0,0,0-.021-.259A1,1,0,0,0,2.26,6.49a.6.6,0,0,0-.109-.166.289.289,0,0,0-.137-.085L.952,5.978Z" transform="translate(1238.163 118.911)" fill="#fff"/>
  </g>
</svg>
